<svg id="Layer_1" data-name="Layer 1" xmlns="http://www.w3.org/2000/svg" width="1.1in" height="1.2in" viewBox="0 0 81.5 82.9"><title>Artboard 1</title><path d="M7.5,71.5V11.4a3.6,3.6,0,0,1,3.7-3.2h59A3.7,3.7,0,0,1,74.1,12q0,29.5,0,59a3.7,3.7,0,0,1-3.8,3.8H53.5V49.1h8.6L63.5,39H53.5v-.4c0-1.9,0-3.8,0-5.7a17.1,17.1,0,0,1,.1-1.9,3.3,3.3,0,0,1,2.7-3l2.2-.3h5.3v-.4q0-1.6,0-3.3t0-5.1c0-.2,0-.3-.2-.4H62.2l-6.3-.2a13.8,13.8,0,0,0-3.6.4,11.1,11.1,0,0,0-7.8,5.9,14.1,14.1,0,0,0-1.5,6.2c0,2.6,0,5.1,0,7.7,0,.1,0,.3,0,.4H34.4V49.1H43V74.9H11.2A3.7,3.7,0,0,1,7.6,72Z"/><path d="M7.5,71.5V72a3.7,3.7,0,0,0,3.6,2.9H43V49.1H34.4V39h8.7c0-.2,0-.3,0-.4,0-2.6,0-5.1,0-7.7a14.1,14.1,0,0,1,1.5-6.2,11.1,11.1,0,0,1,7.8-5.9,13.8,13.8,0,0,1,3.6-.4l6.3.2h1.3c.3,0,.2.2.2.4q0,2.5,0,5.1t0,3.3v.4H58.5l-2.2.3a3.3,3.3,0,0,0-2.7,3,17.1,17.1,0,0,0-.1,1.9c0,1.9,0,3.8,0,5.7V39h9.9L62.2,49.1H53.5V74.9H70.3a3.7,3.7,0,0,0,3.8-3.8q0-29.5,0-59a3.7,3.7,0,0,0-3.8-3.8h-59a3.6,3.6,0,0,0-3.7,3.2V8.2H74.2V74.9H7.5Z" fill="#fff"/></svg>