<svg id="Logo" xmlns="http://www.w3.org/2000/svg" width="95.6" height="88.1" viewBox="0 0 95.6 88.1"><title>Artboard 1</title><path d="M47.2,14.5c9.6,0,10.8,0,14.5.2A19.9,19.9,0,0,1,68.5,16a11.9,11.9,0,0,1,6.8,6.8,19.9,19.9,0,0,1,1.2,6.7c.2,3.8.2,4.9.2,14.5s0,10.8-.2,14.5a19.9,19.9,0,0,1-1.2,6.7,11.9,11.9,0,0,1-6.8,6.8,19.9,19.9,0,0,1-6.7,1.2c-3.8.2-4.9.2-14.5.2s-10.8,0-14.5-.2A19.9,19.9,0,0,1,26,72.1a11.9,11.9,0,0,1-6.8-6.8,19.9,19.9,0,0,1-1.2-6.7c-.2-3.8-.2-4.9-.2-14.5s0-10.8.2-14.5a19.9,19.9,0,0,1,1.2-6.7A11.9,11.9,0,0,1,26,16a19.9,19.9,0,0,1,6.7-1.2c3.8-.2,4.9-.2,14.5-.2m0-6.5c-9.8,0-11,0-14.8.2a26.4,26.4,0,0,0-8.7,1.7A18.4,18.4,0,0,0,13.1,20.5a26.4,26.4,0,0,0-1.7,8.7c-.2,3.8-.2,5.1-.2,14.8s0,11,.2,14.8a26.4,26.4,0,0,0,1.7,8.7A18.4,18.4,0,0,0,23.7,78.1a26.4,26.4,0,0,0,8.7,1.7c3.8.2,5.1.2,14.8.2s11,0,14.8-.2a26.4,26.4,0,0,0,8.7-1.7A18.4,18.4,0,0,0,81.4,67.6,26.4,26.4,0,0,0,83,58.9c.2-3.8.2-5.1.2-14.8s0-11-.2-14.8a26.4,26.4,0,0,0-1.7-8.7A18.4,18.4,0,0,0,70.8,9.9a26.4,26.4,0,0,0-8.7-1.7C58.2,8.1,57,8,47.2,8Z"/><path d="M47.2,25.5A18.5,18.5,0,1,0,65.7,44,18.5,18.5,0,0,0,47.2,25.5Zm0,30.5a12,12,0,1,1,12-12A12,12,0,0,1,47.2,56Z"/><circle cx="66.5" cy="24.8" r="4.3"/></svg>